<svg width="48" height="48" viewBox="0 0 48 48" fill="none" xmlns="http://www.w3.org/2000/svg">
<path d="M23.502 4.00293C17.3607 4.00293 13.3795 8.04093 8.67137 9.51293C6.75629 10.1129 5.79875 10.4109 5.41083 10.8329C5.02292 11.2529 4.91062 11.8709 4.684 13.1029C2.25442 26.2949 7.56275 38.4909 20.2211 43.2389C21.5788 43.7489 22.2587 44.0029 23.5082 44.0029C24.7577 44.0029 25.4396 43.7469 26.7993 43.2369C39.4556 38.4909 44.7578 26.2949 42.3282 13.1029C42.1016 11.8709 41.9873 11.2529 41.5994 10.8309C41.2115 10.4089 40.256 10.1109 38.3409 9.51293C33.6308 8.04093 29.6434 4.00293 23.502 4.00293Z" stroke="white" stroke-width="3" stroke-linecap="round" stroke-linejoin="round"/>
<path d="M17.3781 26.0015C17.3781 26.0015 19.4197 26.0015 21.4614 30.0015C21.4614 30.0015 27.9478 20.0015 33.7114 18.0015" stroke="white" stroke-width="3" stroke-linecap="round" stroke-linejoin="round"/>
</svg>
