<svg width="18" height="18" viewBox="0 0 18 18" fill="none"  xmlns="http://www.w3.org/2000/svg">
<path d="M3 6.375H4.3125M4.3125 6.375C4.6606 6.375 4.99444 6.51328 5.24058 6.75942C5.48672 7.00556 5.625 7.3394 5.625 7.6875C5.625 8.0356 5.48672 8.36944 5.24058 8.61558C4.99444 8.86172 4.6606 9 4.3125 9H2.25M4.3125 6.375C4.6606 6.375 4.99444 6.23672 5.24058 5.99058C5.48672 5.74444 5.625 5.4106 5.625 5.0625C5.625 4.7144 5.48672 4.38056 5.24058 4.13442C4.99444 3.88828 4.6606 3.75 4.3125 3.75H2.25M15.75 11.25C15.75 13.7355 12.7275 15.75 9 15.75C5.2725 15.75 2.25 13.7355 2.25 11.25M10.5 3.75H9.75C9.15326 3.75 8.58097 3.98705 8.15901 4.40901C7.73705 4.83097 7.5 5.40326 7.5 6V7.5M7.5 7.5C7.5 7.89782 7.65803 8.27936 7.93934 8.56066C8.22064 8.84196 8.60217 9 9 9H9.375C9.77282 9 10.1544 8.84196 10.4357 8.56066C10.717 8.27936 10.875 7.89782 10.875 7.5V7.125C10.875 6.72718 10.717 6.34564 10.4357 6.06434C10.1544 5.78304 9.77282 5.625 9.375 5.625H9C8.60217 5.625 8.22064 5.78304 7.93934 6.06434C7.65803 6.34564 7.5 6.72718 7.5 7.125V7.5ZM12.75 6.375V5.25C12.75 4.85218 12.908 4.47064 13.1893 4.18934C13.4706 3.90804 13.8522 3.75 14.25 3.75H14.625C15.0228 3.75 15.4044 3.90804 15.6857 4.18934C15.967 4.47064 16.125 4.85218 16.125 5.25V7.5C16.125 7.89782 15.967 8.27936 15.6857 8.56066C15.4044 8.84196 15.0228 9 14.625 9H14.25C13.8522 9 13.4706 8.84196 13.1893 8.56066C12.908 8.27936 12.75 7.89782 12.75 7.5V6.375Z" stroke="#9F0E52" stroke-width="1.5625" stroke-linecap="round" stroke-linejoin="round"/>
</svg>
