<svg width="51" height="51" viewBox="0 0 51 51" fill="none" xmlns="http://www.w3.org/2000/svg">
<path d="M1.34998 4.00376C1.34998 3.29996 1.63093 2.62499 2.13102 2.12734C2.63112 1.62968 3.3094 1.3501 4.01664 1.3501H46.6833C47.3906 1.3501 48.0688 1.62968 48.5689 2.12734C49.069 2.62499 49.35 3.29996 49.35 4.00376V9.31107C49.35 10.0149 49.069 10.6898 48.5689 11.1875C48.0688 11.6852 47.3906 11.9647 46.6833 11.9647H4.01664C3.3094 11.9647 2.63112 11.6852 2.13102 11.1875C1.63093 10.6898 1.34998 10.0149 1.34998 9.31107V4.00376ZM14.6833 30.5403C14.6833 33.3555 15.8071 36.0554 17.8075 38.046C19.8079 40.0366 22.521 41.155 25.35 41.155C28.179 41.155 30.8921 40.0366 32.8924 38.046C34.8928 36.0554 36.0166 33.3555 36.0166 30.5403C36.0166 27.7252 34.8928 25.0253 32.8924 23.0347C30.8921 21.044 28.179 19.9257 25.35 19.9257C22.521 19.9257 19.8079 21.044 17.8075 23.0347C15.8071 25.0253 14.6833 27.7252 14.6833 30.5403Z" stroke="white" stroke-width="2.7" stroke-linecap="round" stroke-linejoin="round"/>
<path d="M44.0816 11.8867V30.6184C44.0816 35.5864 42.1081 40.3509 38.5952 43.8637C35.0823 47.3766 30.3178 49.3501 25.3499 49.3501C20.3819 49.3501 15.6174 47.3766 12.1046 43.8637C8.59168 40.3509 6.61816 35.5864 6.61816 30.6184V11.8867M25.3499 30.6184H25.3766" stroke="white" stroke-width="2.7" stroke-linecap="round" stroke-linejoin="round"/>
</svg>
