<svg width="48" height="48" viewBox="0 0 48 48" fill="none" xmlns="http://www.w3.org/2000/svg">
<g clip-path="url(#clip0_1_863)">
<path d="M2 39H6.6M6.6 39H31.9M6.6 39V25.976C6.6 24.7619 6.6 24.1538 6.7449 23.5872C6.8737 23.0854 7.0853 22.609 7.3705 22.1766C7.6925 21.6909 8.1433 21.2816 9.0426 20.4723L14.3349 15.69C16.0714 14.1221 16.9385 13.3382 17.9229 13.0399C18.7884 12.7777 19.7116 12.7777 20.5771 13.0399C21.5615 13.3382 22.4309 14.1221 24.1697 15.6923L29.4597 20.4723C30.3567 21.2816 30.8052 21.6909 31.1295 22.1766C31.4147 22.609 31.6263 23.0854 31.7551 23.5872C31.9 24.1538 31.9 24.7619 31.9 25.976V39M31.9 39H43.4M43.4 39H48M43.4 39V9.39306C43.4 6.80769 43.4 5.51269 42.8986 4.52525C42.4569 3.65478 41.7524 2.94727 40.8861 2.50412C39.904 2 38.616 2 36.04 2H20.86C18.284 2 16.996 2 16.0116 2.50412C15.146 2.9474 14.4423 3.65494 14.0014 4.52525C13.5 5.515 13.5 6.81 13.5 9.4V15.875" stroke="white" stroke-width="2.5" stroke-linecap="round" stroke-linejoin="round"/>
</g>
<defs>
<clipPath id="clip0_1_863">
<rect width="48" height="48" fill="white"/>
</clipPath>
</defs>
</svg>
