<svg width="48" height="48" viewBox="0 0 48 48" fill="none" xmlns="http://www.w3.org/2000/svg">
<path d="M11.3277 5.15625L8.21332 18.6562H9.94957L12.6777 6.84375H14.3839L12.4527 18.6562H14.1683L15.1152 12.8437H23.1589V18.6562H24.8464V12.8437H32.8902L33.8371 18.6562H35.5527L33.6214 6.84375H35.3277L38.0558 18.6562H39.7902L36.6777 5.15625H11.3277ZM16.0996 6.84375H31.9058L32.6183 11.1562H15.3871L16.0996 6.84375ZM6.84645 20.3437V23.1562H41.1589V20.3437H6.84645ZM6.78645 24.8437L1.94238 45.8437H46.0621L41.2152 24.8437H39.4808L43.9433 44.1562H39.7246L36.5652 24.8437H34.8496L36.1808 33H24.8464V24.8437H23.1589V33H11.8246L13.1558 24.8437H11.4402L8.28551 44.1562H4.06301L8.52176 24.8437H6.78645ZM11.5433 34.6875H36.4621L38.0089 44.1562H9.99644L11.5433 34.6875Z" fill="#B9105F"/>
</svg>
