<svg width="19" height="19" viewBox="0 0 19 19" fill="none" xmlns="http://www.w3.org/2000/svg">
<path d="M5.01664 10.8501C5.45867 10.8501 5.88259 10.6745 6.19515 10.3619C6.50771 10.0494 6.68331 9.62546 6.68331 9.18343C6.68331 8.7414 6.50771 8.31748 6.19515 8.00492C5.88259 7.69236 5.45867 7.51676 5.01664 7.51676C4.57461 7.51676 4.15069 7.69236 3.83813 8.00492C3.52557 8.31748 3.34998 8.7414 3.34998 9.18343C3.34998 9.62546 3.52557 10.0494 3.83813 10.3619C4.15069 10.6745 4.57461 10.8501 5.01664 10.8501ZM13.35 10.8501C13.792 10.8501 14.2159 10.6745 14.5285 10.3619C14.841 10.0494 15.0166 9.62546 15.0166 9.18343C15.0166 8.7414 14.841 8.31748 14.5285 8.00492C14.2159 7.69236 13.792 7.51676 13.35 7.51676C12.9079 7.51676 12.484 7.69236 12.1715 8.00492C11.8589 8.31748 11.6833 8.7414 11.6833 9.18343C11.6833 9.62546 11.8589 10.0494 12.1715 10.3619C12.484 10.6745 12.9079 10.8501 13.35 10.8501ZM9.18331 6.68343C9.62534 6.68343 10.0493 6.50784 10.3618 6.19528C10.6744 5.88271 10.85 5.45879 10.85 5.01676C10.85 4.57474 10.6744 4.15081 10.3618 3.83825C10.0493 3.52569 9.62534 3.3501 9.18331 3.3501C8.74128 3.3501 8.31736 3.52569 8.0048 3.83825C7.69224 4.15081 7.51664 4.57474 7.51664 5.01676C7.51664 5.45879 7.69224 5.88271 8.0048 6.19528C8.31736 6.50784 8.74128 6.68343 9.18331 6.68343ZM9.18331 15.0168C9.62534 15.0168 10.0493 14.8412 10.3618 14.5286C10.6744 14.216 10.85 13.7921 10.85 13.3501C10.85 12.9081 10.6744 12.4841 10.3618 12.1716C10.0493 11.859 9.62534 11.6834 9.18331 11.6834C8.74128 11.6834 8.31736 11.859 8.0048 12.1716C7.69224 12.4841 7.51664 12.9081 7.51664 13.3501C7.51664 13.7921 7.69224 14.216 8.0048 14.5286C8.31736 14.8412 8.74128 15.0168 9.18331 15.0168Z" stroke="#9F0E52" stroke-width="1.7" stroke-linecap="round" stroke-linejoin="round"/>
<path d="M0.849976 9.18343C0.849976 13.7859 4.58081 17.5168 9.18331 17.5168C13.7858 17.5168 17.5166 13.7859 17.5166 9.18343C17.5166 4.58093 13.7858 0.850098 9.18331 0.850098C4.58081 0.850098 0.849976 4.58093 0.849976 9.18343ZM0.849976 9.18343V17.5168" stroke="#9F0E52" stroke-width="1.7" stroke-linecap="round" stroke-linejoin="round"/>
</svg>
