<svg width="48" height="48" viewBox="0 0 48 48" fill="none" xmlns="http://www.w3.org/2000/svg">
<g clip-path="url(#clip0_1_859)">
<path d="M1.49902 45.6275C3.63246 46.4872 5.96777 46.7168 8.22777 46.2889C10.4878 45.861 12.5775 44.7936 14.249 43.2135C16.4777 45.3234 19.43 46.4993 22.499 46.4993C25.568 46.4993 28.5204 45.3234 30.749 43.2135C32.8532 45.2053 35.607 46.3685 38.502 46.4883C41.3969 46.6082 44.2374 45.6766 46.499 43.8655M34.499 37.4995V7.49951C34.499 5.90821 35.1312 4.38209 36.2564 3.25687C37.3816 2.13165 38.9077 1.49951 40.499 1.49951C42.0903 1.49951 43.6165 2.13165 44.7417 3.25687C45.8669 4.38209 46.499 5.90821 46.499 7.49951M16.499 37.4995V7.49951C16.499 5.90821 17.1312 4.38209 18.2564 3.25687C19.3816 2.13165 20.9077 1.49951 22.499 1.49951C24.0903 1.49951 25.6164 2.13165 26.7417 3.25687C27.8669 4.38209 28.499 5.90821 28.499 7.49951M16.499 22.4995H34.499M16.499 31.4995H34.499M16.499 13.4995H34.499" stroke="#9F0E52" stroke-width="2.5" stroke-linecap="round" stroke-linejoin="round"/>
</g>
<defs>
<clipPath id="clip0_1_859">
<rect width="48" height="48" fill="white"/>
</clipPath>
</defs>
</svg>
