<svg width="48" height="48" viewBox="0 0 48 48" fill="none" xmlns="http://www.w3.org/2000/svg">
<path d="M5.6554 2.49366C5.28493 2.49366 4.97535 2.37701 4.72663 2.14372C4.47792 1.91042 4.35269 1.61921 4.35095 1.27008C4.35095 0.922581 4.47618 0.631368 4.72663 0.39644C4.97535 0.163144 5.28493 0.0464962 5.6554 0.0464962H10.1218C10.4923 0.0464962 10.8027 0.163144 11.0532 0.39644C11.3019 0.631368 11.4262 0.922581 11.4262 1.27008C11.4262 1.61758 11.3019 1.90879 11.0532 2.14372C10.8045 2.37864 10.494 2.49529 10.1218 2.49366H5.6554ZM7.62249 35.5304L6.73026 39.764C6.62938 40.2371 6.73808 40.6531 7.05637 41.012C7.37465 41.3742 7.78424 41.5553 8.28515 41.5553H24.7211V35.5304H7.62249ZM9.4748 12.7228L12.655 9.74216C12.8985 9.51376 13.1951 9.39956 13.5447 9.39956C13.8942 9.39956 14.196 9.51376 14.4499 9.74216C14.7387 9.98035 14.8743 10.2707 14.8569 10.6133C14.8395 10.956 14.7039 11.2472 14.4499 11.487L11.2697 14.4725C11.0262 14.7009 10.7297 14.8151 10.3801 14.8151C10.0305 14.8151 9.72873 14.7009 9.4748 14.4725C9.18608 14.2327 9.05042 13.9415 9.06782 13.5989C9.08521 13.2547 9.22087 12.961 9.4748 12.7228ZM8.16514 33.0832H24.7211V26.9164H10.7636C10.3949 26.9164 10.0601 27.0346 9.75917 27.2712C9.45828 27.5077 9.27479 27.7981 9.20869 28.1424L8.16514 33.0832ZM26.0256 9.88409C23.0862 9.88409 20.5956 8.92562 18.5537 7.00868C16.5118 5.09336 15.4909 2.75714 15.4909 0H18.0998C18.0998 2.0703 18.8685 3.82736 20.406 5.27119C21.9453 6.71339 23.8184 7.43448 26.0256 7.43448C28.2327 7.43448 30.1059 6.71339 31.6451 5.27119C33.1826 3.82736 33.9513 2.0703 33.9513 0H36.5602C36.5602 2.75714 35.5393 5.09336 33.4974 7.00868C31.4555 8.92399 28.9649 9.88246 26.0256 9.88409ZM24.7211 18.8701V14.683C24.7211 14.3339 24.8455 14.0426 25.0942 13.8093C25.3446 13.576 25.6551 13.4594 26.0256 13.4594C26.396 13.4594 26.7065 13.576 26.9569 13.8093C27.2056 14.0426 27.33 14.3339 27.33 14.683V18.8701C27.33 19.2192 27.2056 19.5104 26.9569 19.7437C26.7065 19.977 26.396 20.0937 26.0256 20.0937C25.6551 20.0937 25.3446 19.977 25.0942 19.7437C24.8455 19.5104 24.7211 19.2192 24.7211 18.8701ZM27.33 41.5553H43.7138C44.2182 41.5553 44.6286 41.3742 44.9452 41.012C45.2635 40.6531 45.3722 40.2371 45.2713 39.764L44.3791 35.5304H27.33V41.5553ZM27.33 33.0832H43.8364L42.7929 28.1399C42.725 27.7973 42.5407 27.5077 42.2398 27.2712C41.9389 27.0346 41.6049 26.9172 41.238 26.9188H27.33V33.0832ZM40.831 14.4554L37.6012 11.4258C37.3577 11.1974 37.2411 10.9192 37.2516 10.5913C37.2638 10.2634 37.3968 9.98035 37.6507 9.74216C37.8942 9.51376 38.1847 9.39956 38.5221 9.39956C38.8613 9.39956 39.1526 9.51376 39.3961 9.74216L42.6911 12.7253C42.9798 12.9537 43.1242 13.2318 43.1242 13.5597C43.1242 13.8877 42.9798 14.1862 42.6911 14.4554C42.4041 14.7262 42.0945 14.8616 41.7623 14.8616C41.4301 14.8616 41.1197 14.7262 40.831 14.4554ZM46.3957 2.49366H40.6249V0.0464962H46.3957C46.7662 0.0464962 47.0758 0.163144 47.3245 0.39644C47.5749 0.631368 47.7002 0.922581 47.7002 1.27008C47.7002 1.61758 47.5749 1.90879 47.3245 2.14372C47.074 2.37864 46.7644 2.49529 46.3957 2.49366ZM4.08485 39.2574L6.56329 27.6334C6.78069 26.7116 7.2703 25.9538 8.03209 25.36C8.79214 24.7677 9.68612 24.4716 10.714 24.4716H41.2875C42.3137 24.4716 43.2077 24.7677 43.9695 25.36C44.7313 25.9522 45.22 26.7108 45.4357 27.6358L47.9141 39.2598C48.1628 40.4948 47.8715 41.5936 47.0401 42.5562C46.2088 43.5187 45.1174 44 43.766 44H8.23297C6.88331 44 5.7928 43.5187 4.96143 42.5562C4.13007 41.5936 3.83787 40.494 4.08485 39.2574Z" fill="#B9105F"/>
</svg>
