<svg width="16" height="16" viewBox="0 0 16 16" fill="none" xmlns="http://www.w3.org/2000/svg">
<g clip-path="url(#clip0_0_444)">
<path d="M0.400729 7.90403C0.400357 9.24834 0.751613 10.561 1.41952 11.7179L0.336853 15.6709L4.38225 14.6102C5.50115 15.2193 6.7548 15.5385 8.02876 15.5386H8.03211C12.2377 15.5386 15.6611 12.1164 15.6629 7.91005C15.6637 5.87179 14.8707 3.95513 13.4298 2.51315C11.9892 1.07129 10.0732 0.276809 8.0318 0.275879C3.82572 0.275879 0.402527 3.69789 0.400791 7.90403" fill="url(#paint0_linear_0_444)"/>
<path d="M0.128857 7.90177C0.128422 9.29445 0.492267 10.654 1.18399 11.8524L0.0625 15.9471L4.25295 14.8484C5.40755 15.4779 6.70752 15.8098 8.03031 15.8103H8.03372C12.3902 15.8103 15.9366 12.265 15.9385 7.90809C15.9392 5.79659 15.1176 3.81104 13.6253 2.3174C12.1328 0.823938 10.1483 0.000868217 8.03372 0C3.67652 0 0.130593 3.54481 0.128857 7.90177ZM2.62436 11.646L2.4679 11.3976C1.81016 10.3518 1.463 9.14326 1.46349 7.90226C1.46492 4.28087 4.41214 1.33457 8.03621 1.33457C9.79124 1.33532 11.4406 2.01947 12.6812 3.26078C13.9217 4.5022 14.6043 6.15243 14.6038 7.9076C14.6022 11.529 11.6549 14.4757 8.03372 14.4757H8.03112C6.85202 14.475 5.69562 14.1584 4.68712 13.56L4.44712 13.4177L1.96042 14.0696L2.62436 11.646V11.646Z" fill="url(#paint1_linear_0_444)"/>
<path d="M6.05747 4.59831C5.9095 4.26944 5.75378 4.2628 5.61307 4.25704C5.49784 4.25208 5.36612 4.25245 5.23452 4.25245C5.1028 4.25245 4.88879 4.302 4.70789 4.49952C4.5268 4.69722 4.01654 5.17499 4.01654 6.14671C4.01654 7.11849 4.72432 8.0576 4.82299 8.1895C4.92178 8.32116 6.18938 10.3791 8.19694 11.1708C9.86541 11.8287 10.2049 11.6978 10.5671 11.6649C10.9292 11.632 11.7357 11.1872 11.9002 10.726C12.0649 10.2649 12.0649 9.86956 12.0155 9.78696C11.9661 9.70467 11.8344 9.65524 11.6369 9.55651C11.4393 9.45772 10.4683 8.97989 10.2872 8.91397C10.1062 8.84811 9.97449 8.81524 9.84277 9.01301C9.71105 9.21046 9.33282 9.65524 9.21753 9.78696C9.10237 9.91899 8.98708 9.93542 8.78963 9.83663C8.59198 9.73753 7.95589 9.52922 7.20122 8.85642C6.61406 8.33288 6.21766 7.68637 6.10243 7.4886C5.98721 7.29115 6.09009 7.18411 6.18913 7.08569C6.27787 6.99719 6.38671 6.85505 6.48556 6.73977C6.58404 6.62442 6.61691 6.54212 6.68277 6.4104C6.7487 6.27856 6.7157 6.16321 6.6664 6.06442C6.61691 5.96563 6.2331 4.98882 6.05747 4.59831Z" fill="white"/>
</g>
<defs>
<linearGradient id="paint0_linear_0_444" x1="766.641" y1="1539.78" x2="766.641" y2="0.275879" gradientUnits="userSpaceOnUse">
<stop stop-color="#1FAF38"/>
<stop offset="1" stop-color="#60D669"/>
</linearGradient>
<linearGradient id="paint1_linear_0_444" x1="793.861" y1="1594.71" x2="793.861" y2="0" gradientUnits="userSpaceOnUse">
<stop stop-color="#F9F9F9"/>
<stop offset="1" stop-color="white"/>
</linearGradient>
<clipPath id="clip0_0_444">
<rect width="16" height="16" fill="white"/>
</clipPath>
</defs>
</svg>
